<svg width="17" height="15" viewBox="0 0 17 15" fill="none" xmlns="http://www.w3.org/2000/svg">
<path fill-rule="evenodd" clip-rule="evenodd" d="M4.12669 2.7897C4.12645 2.42329 4.19845 2.06042 4.33857 1.72185C4.47868 1.38328 4.68416 1.07566 4.94325 0.816564C5.20234 0.55747 5.50997 0.351991 5.84854 0.211878C6.18711 0.0717655 6.54997 -0.000232893 6.91639 5.65936e-07H9.37402C9.74043 -0.000232893 10.1033 0.0717655 10.4419 0.211878C10.7804 0.351991 11.0881 0.55747 11.3472 0.816564C11.6062 1.07566 11.8117 1.38328 11.9518 1.72185C12.092 2.06042 12.164 2.42329 12.1637 2.7897C12.1639 2.79604 12.1663 2.80211 12.1705 2.80683C12.1747 2.81155 12.1805 2.8146 12.1868 2.81545L14.1668 2.97526C15.0537 3.04807 15.7827 3.70332 15.9487 4.57788C16.3703 6.80869 16.4016 9.09575 16.0411 11.3373L15.9549 11.8735C15.8759 12.3649 15.6344 12.8155 15.269 13.1534C14.9036 13.4912 14.4355 13.6968 13.9395 13.7372L12.2143 13.8766C9.50604 14.0966 6.78437 14.0966 4.07608 13.8766L2.35094 13.7372C1.8548 13.6968 1.38656 13.4911 1.02115 13.153C0.655746 12.815 0.414305 12.3641 0.335468 11.8726L0.249344 11.3373C-0.11202 9.09538 -0.0800569 6.8091 0.341683 4.57788C0.422325 4.1526 0.640351 3.76556 0.962272 3.4762C1.28419 3.18684 1.69221 3.01116 2.12365 2.97615L4.1036 2.81545C4.10988 2.8146 4.11566 2.81155 4.11989 2.80683C4.12412 2.80211 4.12653 2.79604 4.12669 2.7897ZM8.1452 4.2174C7.26216 4.2174 6.41528 4.56819 5.79087 5.1926C5.16647 5.817 4.81568 6.66388 4.81568 7.54693C4.81568 8.42997 5.16647 9.27685 5.79087 9.90126C6.41528 10.5257 7.26216 10.8765 8.1452 10.8765C9.02825 10.8765 9.87513 10.5257 10.4995 9.90126C11.1239 9.27685 11.4747 8.42997 11.4747 7.54693C11.4747 6.66388 11.1239 5.817 10.4995 5.1926C9.87513 4.56819 9.02825 4.2174 8.1452 4.2174Z" fill="white"/>
</svg>
