<svg width="16" height="18" viewBox="0 0 16 18" fill="none" xmlns="http://www.w3.org/2000/svg">
<path d="M13.9575 0.939606C14.6625 0.552106 15.5 1.07377 15.5 1.85461V16.1446C15.5 16.9254 14.6625 17.4471 13.9575 17.0596C13.01 16.5396 10.205 15.0246 8.52583 14.3571C7.48443 13.9379 6.4014 13.6306 5.295 13.4404L4.65083 16.6629C4.62938 16.7703 4.587 16.8724 4.5261 16.9634C4.4652 17.0543 4.38698 17.1324 4.2959 17.1932C4.20482 17.2539 4.10267 17.2961 3.99528 17.3174C3.88788 17.3386 3.77736 17.3386 3.67 17.3171C3.56264 17.2957 3.46056 17.2533 3.36959 17.1924C3.27861 17.1315 3.20052 17.0533 3.13978 16.9622C3.07903 16.8711 3.03682 16.7689 3.01556 16.6615C2.99429 16.5542 2.99438 16.4436 3.01583 16.3363L3.635 13.2404C3.41049 13.2236 3.18574 13.21 2.96083 13.1996C1.625 13.1379 0.5 12.0588 0.5 10.6663V7.33294C0.5 5.94044 1.625 4.86127 2.96083 4.79961C3.25639 4.78572 3.54722 4.76683 3.83333 4.74294V12.3329H3.86167C3.93481 12.2063 4.04001 12.1011 4.16668 12.0279C4.29336 11.9548 4.43706 11.9163 4.58333 11.9163C4.72961 11.9163 4.8733 11.9548 4.99998 12.0279C5.12666 12.1011 5.23186 12.2063 5.305 12.3329H5.5V4.52294C6.53511 4.33063 7.54846 4.03556 8.525 3.64211C10.205 2.97461 13.01 1.45877 13.9575 0.939606Z" fill="white"/>
</svg>
